<svg xmlns="http://www.w3.org/2000/svg" xmlns:xlink="http://www.w3.org/1999/xlink" viewBox="0 0 1920 1000"><defs><style>.cls-1{fill:url(#radial-gradient);}.cls-2{isolation:isolate;}.cls-3{mix-blend-mode:overlay;}</style><radialGradient id="radial-gradient" cx="84.5" cy="84.5" r="84.5" gradientUnits="userSpaceOnUse"><stop offset="0" stop-color="#fff"/><stop offset="0.05" stop-color="#fff" stop-opacity="0.93"/><stop offset="0.25" stop-color="#fff" stop-opacity="0.65"/><stop offset="0.45" stop-color="#fff" stop-opacity="0.42"/><stop offset="0.63" stop-color="#fff" stop-opacity="0.24"/><stop offset="0.78" stop-color="#fff" stop-opacity="0.11"/><stop offset="0.91" stop-color="#fff" stop-opacity="0.03"/><stop offset="1" stop-color="#fff" stop-opacity="0"/></radialGradient><symbol id="New_Symbol_1" data-name="New Symbol 1" viewBox="0 0 169 169"><circle class="cls-1" cx="84.5" cy="84.5" r="84.5"/></symbol></defs><title>Flares</title><g class="cls-2"><g id="Layer_2" data-name="Layer 2"><g id="Layer_1-2" data-name="Layer 1"><g class="cls-3"><use width="169" height="169" transform="translate(69.18 46.53) scale(0.86 0.82)" xlink:href="#New_Symbol_1"/><use width="169" height="169" transform="translate(92.56 417.1) scale(0.86 0.82)" xlink:href="#New_Symbol_1"/><use width="169" height="169" transform="translate(175.38 681.82) scale(0.86 0.82)" xlink:href="#New_Symbol_1"/><use width="169" height="169" transform="translate(272.48 564.62) scale(0.86 0.82)" xlink:href="#New_Symbol_1"/><use width="169" height="169" transform="translate(253.45 182.7) scale(0.86 0.82)" xlink:href="#New_Symbol_1"/><use width="169" height="169" transform="translate(378.75 22.96) scale(0.86 0.82)" xlink:href="#New_Symbol_1"/><use width="169" height="169" transform="translate(654.86 121.11) scale(0.86 0.82)" xlink:href="#New_Symbol_1"/><use width="169" height="169" transform="translate(366.39 306.13) scale(0.86 0.82)" xlink:href="#New_Symbol_1"/><use width="169" height="169" transform="translate(720.06 565.03) scale(0.86 0.82)" xlink:href="#New_Symbol_1"/><use width="169" height="169" transform="translate(1380.11 568.09) scale(0.86 0.82)" xlink:href="#New_Symbol_1"/><use width="169" height="169" transform="translate(1101.2 273.53) scale(0.86 0.82)" xlink:href="#New_Symbol_1"/><use width="169" height="169" transform="translate(797.41 219.14) scale(0.86 0.82)" xlink:href="#New_Symbol_1"/><use width="169" height="169" transform="translate(932.98 285.33) scale(0.86 0.82)" xlink:href="#New_Symbol_1"/><use width="169" height="169" transform="translate(584.27 600.45) scale(0.86 0.82)" xlink:href="#New_Symbol_1"/><use width="169" height="169" transform="translate(1055.01 662.67) scale(0.86 0.82)" xlink:href="#New_Symbol_1"/><use width="169" height="169" transform="translate(680.04 742.43) scale(0.86 0.82)" xlink:href="#New_Symbol_1"/><use width="169" height="169" transform="translate(656.54 467.47) scale(0.86 0.82)" xlink:href="#New_Symbol_1"/><use width="169" height="169" transform="translate(838.34 341.02) scale(0.86 0.82)" xlink:href="#New_Symbol_1"/><use width="169" height="169" transform="translate(497.01 204.51) scale(0.86 0.82)" xlink:href="#New_Symbol_1"/><use width="169" height="169" transform="translate(1317.42 108.03) scale(0.86 0.82)" xlink:href="#New_Symbol_1"/><use width="169" height="169" transform="translate(788.98 55.46) scale(0.86 0.82)" xlink:href="#New_Symbol_1"/><use width="169" height="169" transform="translate(1083.59 9.32) scale(0.86 0.82)" xlink:href="#New_Symbol_1"/><use width="169" height="169" transform="translate(1132.41) scale(0.86 0.82)" xlink:href="#New_Symbol_1"/><use width="169" height="169" transform="translate(893.85 34.51) scale(0.86 0.82)" xlink:href="#New_Symbol_1"/><use width="169" height="169" transform="translate(1199.13 125.51) scale(0.86 0.82)" xlink:href="#New_Symbol_1"/><use width="169" height="169" transform="translate(671.29 261.75) scale(0.86 0.82)" xlink:href="#New_Symbol_1"/><use width="169" height="169" transform="translate(1226.02 261.85) scale(0.86 0.82)" xlink:href="#New_Symbol_1"/><use width="169" height="169" transform="translate(468.16 361.77) scale(0.86 0.82)" xlink:href="#New_Symbol_1"/><use width="169" height="169" transform="translate(674.14 355.29) scale(0.86 0.82)" xlink:href="#New_Symbol_1"/><use width="169" height="169" transform="translate(1316.34 406.36) scale(0.86 0.82)" xlink:href="#New_Symbol_1"/><use width="169" height="169" transform="translate(422.27 513.91) scale(0.86 0.82)" xlink:href="#New_Symbol_1"/><use width="169" height="169" transform="translate(888.74 463.99) scale(0.86 0.82)" xlink:href="#New_Symbol_1"/><use width="169" height="169" transform="translate(881.7 515.87) scale(0.86 0.82)" xlink:href="#New_Symbol_1"/><use width="169" height="169" transform="translate(437.53 298.59) scale(0.86 0.82)" xlink:href="#New_Symbol_1"/><use width="169" height="169" transform="translate(706.78 169.16) scale(0.86 0.82)" xlink:href="#New_Symbol_1"/><use width="169" height="169" transform="translate(138.94 168.42) scale(0.86 0.82)" xlink:href="#New_Symbol_1"/><use width="169" height="169" transform="translate(221.59 248.5) scale(0.86 0.82)" xlink:href="#New_Symbol_1"/><use width="169" height="169" transform="translate(90.38 640.15) scale(0.86 0.82)" xlink:href="#New_Symbol_1"/><use width="169" height="169" transform="translate(312.66 755.51) scale(0.86 0.82)" xlink:href="#New_Symbol_1"/><use width="169" height="169" transform="translate(736.23 833.31) scale(0.86 0.82)" xlink:href="#New_Symbol_1"/><use width="169" height="169" transform="translate(1411.61 810.2) scale(0.86 0.82)" xlink:href="#New_Symbol_1"/><use width="169" height="169" transform="translate(1323.34 813.28) scale(0.86 0.82)" xlink:href="#New_Symbol_1"/><use width="169" height="169" transform="translate(508.98 721.34) scale(0.86 0.82)" xlink:href="#New_Symbol_1"/><use width="169" height="169" transform="translate(1024.47 768.59) scale(0.86 0.82)" xlink:href="#New_Symbol_1"/><use width="169" height="169" transform="translate(1774.92 844.63) scale(0.86 0.82)" xlink:href="#New_Symbol_1"/><use width="169" height="169" transform="translate(1624.92 629.6) scale(0.86 0.82)" xlink:href="#New_Symbol_1"/><use width="169" height="169" transform="translate(1122.73 401.38) scale(0.86 0.82)" xlink:href="#New_Symbol_1"/><use width="169" height="169" transform="translate(1113.94 468.4) scale(0.86 0.82)" xlink:href="#New_Symbol_1"/><use width="169" height="169" transform="translate(1156.63 647.78) scale(0.86 0.82)" xlink:href="#New_Symbol_1"/><use width="169" height="169" transform="translate(1186.99 404.61) scale(0.86 0.82)" xlink:href="#New_Symbol_1"/><use width="169" height="169" transform="translate(1568.45 529.15) scale(0.86 0.82)" xlink:href="#New_Symbol_1"/><use width="169" height="169" transform="translate(1357.08 732.02) scale(0.86 0.82)" xlink:href="#New_Symbol_1"/><use width="169" height="169" transform="translate(1628.64 225.01) scale(0.86 0.82)" xlink:href="#New_Symbol_1"/><use width="169" height="169" transform="translate(1467.59 593.6) scale(0.86 0.82)" xlink:href="#New_Symbol_1"/><use width="169" height="169" transform="translate(1325.95 179.03) scale(0.86 0.82)" xlink:href="#New_Symbol_1"/><use width="169" height="169" transform="translate(1496 219.75) scale(0.86 0.82)" xlink:href="#New_Symbol_1"/><use width="169" height="169" transform="translate(1411.92 387.21) scale(0.86 0.82)" xlink:href="#New_Symbol_1"/><use width="169" height="169" transform="translate(1516.19 77.02) scale(0.86 0.82)" xlink:href="#New_Symbol_1"/><use width="169" height="169" transform="translate(995.7 556.49) scale(0.86 0.82)" xlink:href="#New_Symbol_1"/><use width="169" height="169" transform="translate(364.87 379.22) scale(0.86 0.82)" xlink:href="#New_Symbol_1"/><use width="169" height="169" transform="translate(666.79 537.51) scale(0.86 0.82)" xlink:href="#New_Symbol_1"/><use width="169" height="169" transform="translate(0 650.48) scale(0.86 0.82)" xlink:href="#New_Symbol_1"/><use width="169" height="169" transform="translate(390.89 678.07) scale(0.86 0.82)" xlink:href="#New_Symbol_1"/><use width="169" height="169" transform="translate(359.34 861.18) scale(0.86 0.82)" xlink:href="#New_Symbol_1"/><use width="169" height="169" transform="translate(921.55 827.71) scale(0.86 0.82)" xlink:href="#New_Symbol_1"/><use width="169" height="169" transform="translate(1490.21 711.42) scale(0.86 0.82)" xlink:href="#New_Symbol_1"/></g></g></g></g></svg>