<svg xmlns="http://www.w3.org/2000/svg" xmlns:xlink="http://www.w3.org/1999/xlink" viewBox="0 0 2317.12 1488.71"><defs><style>.cls-1{fill:url(#radial-gradient);}</style><radialGradient id="radial-gradient" cx="27" cy="26.85" r="27" gradientTransform="translate(0 0.12)" gradientUnits="userSpaceOnUse"><stop offset="0" stop-color="#fff"/><stop offset="0" stop-color="#f4f3f7" stop-opacity="0.95"/><stop offset="0.03" stop-color="#c2c0d5" stop-opacity="0.73"/><stop offset="0.05" stop-color="#9592b7" stop-opacity="0.54"/><stop offset="0.07" stop-color="#706b9d" stop-opacity="0.37"/><stop offset="0.1" stop-color="#514c89" stop-opacity="0.24"/><stop offset="0.12" stop-color="#393379" stop-opacity="0.13"/><stop offset="0.15" stop-color="#28226d" stop-opacity="0.06"/><stop offset="0.17" stop-color="#1e1766" stop-opacity="0.01"/><stop offset="0.2" stop-color="#1b1464" stop-opacity="0"/></radialGradient><symbol id="New_star" data-name="New star" viewBox="0 0 54 54"><circle class="cls-1" cx="27" cy="27" r="27"/></symbol></defs><title>Stars</title><g id="Layer_2" data-name="Layer 2"><g id="Layer_1-2" data-name="Layer 1"><g id="Layer_2-2" data-name="Layer 2"><use width="54" height="54" transform="translate(295.2 319.33)" xlink:href="#New_star"/><use width="54" height="54" transform="translate(342.13 321.58)" xlink:href="#New_star"/><use width="54" height="54" transform="translate(449.23 325.92)" xlink:href="#New_star"/><use width="54" height="54" transform="translate(556.86 321.93)" xlink:href="#New_star"/><use width="54" height="54" transform="translate(682.11 333.57)" xlink:href="#New_star"/><use width="54" height="54" transform="translate(782.67 330.24)" xlink:href="#New_star"/><use width="54" height="54" transform="translate(902.14 325.91)" xlink:href="#New_star"/><use width="54" height="54" transform="translate(1025.28 327.52)" xlink:href="#New_star"/><use width="54" height="54" transform="translate(1155.32 337.56)" xlink:href="#New_star"/><use width="54" height="54" transform="translate(1297.62 340.6)" xlink:href="#New_star"/><use width="54" height="54" transform="translate(1482.43 343.96)" xlink:href="#New_star"/><use width="54" height="54" transform="translate(1635.68 331.05)" xlink:href="#New_star"/><use width="54" height="54" transform="translate(1772.23 362.8)" xlink:href="#New_star"/><use width="54" height="54" transform="translate(1872.22 399.82)" xlink:href="#New_star"/><use width="54" height="54" transform="translate(1957.04 454.05)" xlink:href="#New_star"/><use width="54" height="54" transform="translate(1986.81 495.78)" xlink:href="#New_star"/><use width="54" height="54" transform="translate(1947.45 517.91)" xlink:href="#New_star"/><use width="54" height="54" transform="translate(1913.39 455.66)" xlink:href="#New_star"/><use width="54" height="54" transform="translate(1980.97 290.63)" xlink:href="#New_star"/><use width="54" height="54" transform="translate(1916.52 229.86)" xlink:href="#New_star"/><use width="54" height="54" transform="translate(1607.55 202.89)" xlink:href="#New_star"/><use width="54" height="54" transform="translate(1293.16 232.5)" xlink:href="#New_star"/><use width="54" height="54" transform="translate(1242.9 260.5)" xlink:href="#New_star"/><use width="54" height="54" transform="translate(1669.21 298.96)" xlink:href="#New_star"/><use width="54" height="54" transform="translate(1989.91 338.55)" xlink:href="#New_star"/><use width="54" height="54" transform="translate(1843.17 251.28)" xlink:href="#New_star"/><use width="54" height="54" transform="translate(1196.96 199.97)" xlink:href="#New_star"/><use width="54" height="54" transform="translate(868.48 379.05)" xlink:href="#New_star"/><use width="54" height="54" transform="translate(1140.06 443.56)" xlink:href="#New_star"/><use width="54" height="54" transform="translate(1684.7 409.09)" xlink:href="#New_star"/><use width="54" height="54" transform="translate(1462.01 323.86)" xlink:href="#New_star"/><use width="54" height="54" transform="translate(830.14 258.99)" xlink:href="#New_star"/><use width="54" height="54" transform="translate(783.02 188.49)" xlink:href="#New_star"/><use width="54" height="54" transform="translate(870.76 135.79)" xlink:href="#New_star"/><use width="54" height="54" transform="translate(702.2 190.66)" xlink:href="#New_star"/><use width="54" height="54" transform="translate(1089.89 233.08)" xlink:href="#New_star"/><use width="54" height="54" transform="translate(1377.62 240.71)" xlink:href="#New_star"/><use width="54" height="54" transform="translate(771.98 232.26)" xlink:href="#New_star"/><use width="54" height="54" transform="translate(421.66 254.2)" xlink:href="#New_star"/><use width="54" height="54" transform="translate(972.84 311.35)" xlink:href="#New_star"/><use width="54" height="54" transform="translate(1335.22 444.84)" xlink:href="#New_star"/><use width="54" height="54" transform="translate(660.27 447.94)" xlink:href="#New_star"/><use width="54" height="54" transform="translate(620.08 298.17)" xlink:href="#New_star"/><use width="54" height="54" transform="translate(1157.56 288.22)" xlink:href="#New_star"/><use width="54" height="54" transform="translate(1287.43 394.54)" xlink:href="#New_star"/><use width="54" height="54" transform="translate(763.45 545.38)" xlink:href="#New_star"/><use width="54" height="54" transform="translate(511.62 566)" xlink:href="#New_star"/><use width="54" height="54" transform="translate(1094.2 639.15)" xlink:href="#New_star"/><use width="54" height="54" transform="translate(1444.53 602.75)" xlink:href="#New_star"/><use width="54" height="54" transform="translate(1266.76 445.59)" xlink:href="#New_star"/><use width="54" height="54" transform="translate(556.4 384.08)" xlink:href="#New_star"/><use width="54" height="54" transform="translate(357.68 513.83)" xlink:href="#New_star"/><use width="54" height="54" transform="translate(348.88 477.01)" xlink:href="#New_star"/><use width="54" height="54" transform="translate(342.95 392.56)" xlink:href="#New_star"/><use width="54" height="54" transform="translate(259.5 972.13)" xlink:href="#New_star"/><use width="54" height="54" transform="translate(274.87 1036.57)" xlink:href="#New_star"/><use width="54" height="54" transform="translate(305.39 525.25)" xlink:href="#New_star"/><use width="54" height="54" transform="translate(279.34 565.64)" xlink:href="#New_star"/><use width="54" height="54" transform="translate(215.21 1056.36)" xlink:href="#New_star"/><use width="54" height="54" transform="translate(238.95 706.01)" xlink:href="#New_star"/><use width="54" height="54" transform="translate(218.05 649.86)" xlink:href="#New_star"/><use width="54" height="54" transform="translate(353.79 851.42)" xlink:href="#New_star"/><use width="54" height="54" transform="translate(686.92 670.51)" xlink:href="#New_star"/><use width="54" height="54" transform="translate(640.55 755.17)" xlink:href="#New_star"/><use width="54" height="54" transform="translate(355.8 941.69)" xlink:href="#New_star"/><use width="54" height="54" transform="translate(342.57 771.72)" xlink:href="#New_star"/><use width="54" height="54" transform="translate(652.03 653.53)" xlink:href="#New_star"/><use width="54" height="54" transform="translate(946.16 763.01)" xlink:href="#New_star"/><use width="54" height="54" transform="translate(1323.3 675.48)" xlink:href="#New_star"/><use width="54" height="54" transform="translate(1040.84 527.6)" xlink:href="#New_star"/><use width="54" height="54" transform="translate(759.18 719.25)" xlink:href="#New_star"/><use width="54" height="54" transform="translate(682.87 780.71)" xlink:href="#New_star"/><use width="54" height="54" transform="translate(741.61 564.52)" xlink:href="#New_star"/><use width="54" height="54" transform="translate(946.57 537.75)" xlink:href="#New_star"/><use width="54" height="54" transform="translate(1201.45 643.54)" xlink:href="#New_star"/><use width="54" height="54" transform="translate(1520.02 725.04)" xlink:href="#New_star"/><use width="54" height="54" transform="translate(1932.85 635.11)" xlink:href="#New_star"/><use width="54" height="54" transform="translate(1856.44 440.27)" xlink:href="#New_star"/><use width="54" height="54" transform="translate(1633.88 464.81)" xlink:href="#New_star"/><use width="54" height="54" transform="translate(1561.98 669.06)" xlink:href="#New_star"/><use width="54" height="54" transform="translate(1479.67 841.36)" xlink:href="#New_star"/><use width="54" height="54" transform="translate(1126.12 970.4)" xlink:href="#New_star"/><use width="54" height="54" transform="translate(1004.24 874.89)" xlink:href="#New_star"/><use width="54" height="54" transform="translate(1146.62 655.85)" xlink:href="#New_star"/><use width="54" height="54" transform="translate(1420.14 499.62)" xlink:href="#New_star"/><use width="54" height="54" transform="translate(1537.39 476.48)" xlink:href="#New_star"/><use width="54" height="54" transform="translate(1216.8 540.23)" xlink:href="#New_star"/><use width="54" height="54" transform="translate(1091.65 701.84)" xlink:href="#New_star"/><use width="54" height="54" transform="translate(1284.14 904.13)" xlink:href="#New_star"/><use width="54" height="54" transform="translate(1085.84 1067.25)" xlink:href="#New_star"/><use width="54" height="54" transform="translate(725.06 1128.99)" xlink:href="#New_star"/><use width="54" height="54" transform="translate(653.76 1076.92)" xlink:href="#New_star"/><use width="54" height="54" transform="translate(590.75 858.06)" xlink:href="#New_star"/><use width="54" height="54" transform="translate(594.69 795.49)" xlink:href="#New_star"/><use width="54" height="54" transform="translate(414.17 950.4)" xlink:href="#New_star"/><use width="54" height="54" transform="translate(396.72 1065.67)" xlink:href="#New_star"/><use width="54" height="54" transform="translate(454.89 1167.7)" xlink:href="#New_star"/><use width="54" height="54" transform="translate(416 1254.46)" xlink:href="#New_star"/><use width="54" height="54" transform="translate(624.46 1304.69)" xlink:href="#New_star"/><use width="54" height="54" transform="translate(1038.8 1339.9)" xlink:href="#New_star"/><use width="54" height="54" transform="translate(1376.52 1325.66)" xlink:href="#New_star"/><use width="54" height="54" transform="translate(1687.82 1276.9)" xlink:href="#New_star"/><use width="54" height="54" transform="translate(1872.11 1247.62)" xlink:href="#New_star"/><use width="54" height="54" transform="translate(1868.3 1171.07)" xlink:href="#New_star"/><use width="54" height="54" transform="translate(1386.34 1195.29)" xlink:href="#New_star"/><use width="54" height="54" transform="translate(1014.51 1236.98)" xlink:href="#New_star"/><use width="54" height="54" transform="translate(863.76 1151.52)" xlink:href="#New_star"/><use width="54" height="54" transform="translate(988.44 1083.77)" xlink:href="#New_star"/><use width="54" height="54" transform="translate(1275.45 1126.8)" xlink:href="#New_star"/><use width="54" height="54" transform="translate(1606.58 1125.99)" xlink:href="#New_star"/><use width="54" height="54" transform="translate(1756.86 981.62)" xlink:href="#New_star"/><use width="54" height="54" transform="translate(1569.09 878.91)" xlink:href="#New_star"/><use width="54" height="54" transform="translate(1351.39 1063.15)" xlink:href="#New_star"/><use width="54" height="54" transform="translate(1090.78 1126.42)" xlink:href="#New_star"/><use width="54" height="54" transform="translate(884.03 1008.19)" xlink:href="#New_star"/><use width="54" height="54" transform="translate(993.44 910.64)" xlink:href="#New_star"/><use width="54" height="54" transform="translate(1213.52 935.12)" xlink:href="#New_star"/><use width="54" height="54" transform="translate(1340.01 850.74)" xlink:href="#New_star"/><use width="54" height="54" transform="translate(1066.8 742.17)" xlink:href="#New_star"/><use width="54" height="54" transform="translate(801.23 857.87)" xlink:href="#New_star"/><use width="54" height="54" transform="translate(494.86 905.75)" xlink:href="#New_star"/><use width="54" height="54" transform="translate(515.6 799.83)" xlink:href="#New_star"/><use width="54" height="54" transform="translate(640.34 931.82)" xlink:href="#New_star"/><use width="54" height="54" transform="translate(817.39 1033.27)" xlink:href="#New_star"/><use width="54" height="54" transform="translate(932.71 915.53)" xlink:href="#New_star"/><use width="54" height="54" transform="translate(715.35 965.85)" xlink:href="#New_star"/><use width="54" height="54" transform="translate(450.94 1044.95)" xlink:href="#New_star"/><use width="54" height="54" transform="translate(414.05 788.65)" xlink:href="#New_star"/><use width="54" height="54" transform="translate(470.21 546.31)" xlink:href="#New_star"/><use width="54" height="54" transform="translate(367.6 660.93)" xlink:href="#New_star"/><use width="54" height="54" transform="translate(163.73 1018.5)" xlink:href="#New_star"/><use width="54" height="54" transform="translate(426.82 1194.87)" xlink:href="#New_star"/><use width="54" height="54" transform="translate(335.44 1286.53)" xlink:href="#New_star"/><use width="54" height="54" transform="translate(513.5 1229.63)" xlink:href="#New_star"/><use width="54" height="54" transform="translate(973.71 996.72)" xlink:href="#New_star"/><use width="54" height="54" transform="translate(1157.45 836.5)" xlink:href="#New_star"/><use width="54" height="54" transform="translate(1223.7 786.47)" xlink:href="#New_star"/><use width="54" height="54" transform="translate(1468.9 727.32)" xlink:href="#New_star"/><use width="54" height="54" transform="translate(1846.68 861.26)" xlink:href="#New_star"/><use width="54" height="54" transform="translate(2049.68 985.09)" xlink:href="#New_star"/><use width="54" height="54" transform="translate(2043.71 1150.17)" xlink:href="#New_star"/><use width="54" height="54" transform="translate(2012.02 1315.4)" xlink:href="#New_star"/><use width="54" height="54" transform="translate(1963.06 1152.82)" xlink:href="#New_star"/><use width="54" height="54" transform="translate(1766.35 796.34)" xlink:href="#New_star"/><use width="54" height="54" transform="translate(1692.75 622.07)" xlink:href="#New_star"/><use width="54" height="54" transform="translate(1845.17 542.15)" xlink:href="#New_star"/><use width="54" height="54" transform="translate(1667.08 554.6)" xlink:href="#New_star"/><use width="54" height="54" transform="translate(1528.31 693.24)" xlink:href="#New_star"/><use width="54" height="54" transform="translate(1805.29 821.73)" xlink:href="#New_star"/><use width="54" height="54" transform="translate(1565.89 1027.83)" xlink:href="#New_star"/><use width="54" height="54" transform="translate(1414.56 1170.25)" xlink:href="#New_star"/><use width="54" height="54" transform="translate(1542.29 1209.18)" xlink:href="#New_star"/><use width="54" height="54" transform="translate(1462.68 1262.63)" xlink:href="#New_star"/><use width="54" height="54" transform="translate(1573.11 1054.21)" xlink:href="#New_star"/><use width="54" height="54" transform="translate(1438.75 921.01)" xlink:href="#New_star"/><use width="54" height="54" transform="translate(1491.73 903.44)" xlink:href="#New_star"/><use width="54" height="54" transform="translate(1845.58 966.05)" xlink:href="#New_star"/><use width="54" height="54" transform="translate(1682.29 1052.94)" xlink:href="#New_star"/><use width="54" height="54" transform="translate(1258.89 1169.57)" xlink:href="#New_star"/><use width="54" height="54" transform="translate(1639.44 896.51)" xlink:href="#New_star"/><use width="54" height="54" transform="translate(2013.41 720.65)" xlink:href="#New_star"/><use width="54" height="54" transform="translate(2004.53 665.58)" xlink:href="#New_star"/><use width="54" height="54" transform="translate(1776.09 612.78)" xlink:href="#New_star"/><use width="54" height="54" transform="translate(1769.37 823.48)" xlink:href="#New_star"/><use width="54" height="54" transform="translate(1867.94 906.59)" xlink:href="#New_star"/><use width="54" height="54" transform="translate(1639.62 788.8)" xlink:href="#New_star"/><use width="54" height="54" transform="translate(1556.98 781.52)" xlink:href="#New_star"/><use width="54" height="54" transform="translate(1874.5 754.06)" xlink:href="#New_star"/><use width="54" height="54" transform="translate(1967.68 818.5)" xlink:href="#New_star"/><use width="54" height="54" transform="translate(2060.93 743.94)" xlink:href="#New_star"/><use width="54" height="54" transform="translate(2035.02 916.22)" xlink:href="#New_star"/><use width="54" height="54" transform="translate(2005.35 811.32)" xlink:href="#New_star"/><use width="54" height="54" transform="translate(1689.51 534.29)" xlink:href="#New_star"/><use width="54" height="54" transform="translate(1397.6 656.41)" xlink:href="#New_star"/><use width="54" height="54" transform="translate(1247.17 686.87)" xlink:href="#New_star"/><use width="54" height="54" transform="translate(1224.8 496.13)" xlink:href="#New_star"/><use width="54" height="54" transform="translate(1575.98 412.41)" xlink:href="#New_star"/><use width="54" height="54" transform="translate(1612.48 369.64)" xlink:href="#New_star"/><use width="54" height="54" transform="translate(1365.85 289.98)" xlink:href="#New_star"/><use width="54" height="54" transform="translate(926.43 426.32)" xlink:href="#New_star"/><use width="54" height="54" transform="translate(565.33 531.33)" xlink:href="#New_star"/><use width="54" height="54" transform="translate(597.89 728.89)" xlink:href="#New_star"/><use width="54" height="54" transform="translate(722.99 814.07)" xlink:href="#New_star"/><use width="54" height="54" transform="translate(1054.71 672.29)" xlink:href="#New_star"/><use width="54" height="54" transform="translate(872.86 600.64)" xlink:href="#New_star"/><use width="54" height="54" transform="translate(808.6 644.14)" xlink:href="#New_star"/><use width="54" height="54" transform="translate(889.49 720.1)" xlink:href="#New_star"/><use width="54" height="54" transform="translate(883.96 837.8)" xlink:href="#New_star"/><use width="54" height="54" transform="translate(666.97 898.19)" xlink:href="#New_star"/><use width="54" height="54" transform="translate(557.48 698.69)" xlink:href="#New_star"/><use width="54" height="54" transform="translate(817 472.66)" xlink:href="#New_star"/><use width="54" height="54" transform="translate(822.21 394.19)" xlink:href="#New_star"/><use width="54" height="54" transform="translate(609.06 389.43)" xlink:href="#New_star"/><use width="54" height="54" transform="translate(652.29 543.59)" xlink:href="#New_star"/><use width="54" height="54" transform="translate(593.84 680.63)" xlink:href="#New_star"/><use width="54" height="54" transform="translate(306.13 787.89)" xlink:href="#New_star"/><use width="54" height="54" transform="translate(322.42 587.58)" xlink:href="#New_star"/><use width="54" height="54" transform="translate(410.75 454.87)" xlink:href="#New_star"/><use width="54" height="54" transform="translate(460.58 434.63)" xlink:href="#New_star"/><use width="54" height="54" transform="translate(491.15 597.65)" xlink:href="#New_star"/><use width="54" height="54" transform="translate(465.01 728.55)" xlink:href="#New_star"/><use width="54" height="54" transform="translate(383.07 907.04)" xlink:href="#New_star"/><use width="54" height="54" transform="translate(612.96 1057.02)" xlink:href="#New_star"/><use width="54" height="54" transform="translate(908.44 1164.42)" xlink:href="#New_star"/><use width="54" height="54" transform="translate(1206.51 1072.88)" xlink:href="#New_star"/><use width="54" height="54" transform="translate(1138.41 930.03)" xlink:href="#New_star"/><use width="54" height="54" transform="translate(754.26 1077.57)" xlink:href="#New_star"/><use width="54" height="54" transform="translate(581.13 1279.59)" xlink:href="#New_star"/><use width="54" height="54" transform="translate(516.11 1194.17)" xlink:href="#New_star"/><use width="54" height="54" transform="translate(721.4 1216.75)" xlink:href="#New_star"/><use width="54" height="54" transform="translate(1090 1274.35)" xlink:href="#New_star"/><use width="54" height="54" transform="translate(1453.41 1200.59)" xlink:href="#New_star"/><use width="54" height="54" transform="translate(1463.34 930.36)" xlink:href="#New_star"/><use width="54" height="54" transform="translate(983.89 792.67)" xlink:href="#New_star"/><use width="54" height="54" transform="translate(1111.38 725.37)" xlink:href="#New_star"/><use width="54" height="54" transform="translate(1431.19 569.05)" xlink:href="#New_star"/><use width="54" height="54" transform="translate(1104.45 435.69)" xlink:href="#New_star"/><use width="54" height="54" transform="translate(1030.93 488.52)" xlink:href="#New_star"/><use width="54" height="54" transform="translate(1281.75 618.33)" xlink:href="#New_star"/><use width="54" height="54" transform="translate(632.55 801.06)" xlink:href="#New_star"/><use width="54" height="54" transform="translate(905.69 888.24)" xlink:href="#New_star"/><use width="54" height="54" transform="translate(1603.98 1021.85)" xlink:href="#New_star"/><use width="54" height="54" transform="translate(1614.74 767.26)" xlink:href="#New_star"/><use width="54" height="54" transform="translate(1087.58 596.44)" xlink:href="#New_star"/><use width="54" height="54" transform="translate(940.55 716.41)" xlink:href="#New_star"/><use width="54" height="54" transform="translate(1017.32 569.07)" xlink:href="#New_star"/><use width="54" height="54" transform="translate(581.92 563.42)" xlink:href="#New_star"/><use width="54" height="54" transform="translate(2058.25 1253.22)" xlink:href="#New_star"/><use width="54" height="54" transform="translate(2128.24 1226.53)" xlink:href="#New_star"/><use width="54" height="54" transform="translate(2167.84 1173.99)" xlink:href="#New_star"/><use width="54" height="54" transform="translate(2218.11 1076.57)" xlink:href="#New_star"/><use width="54" height="54" transform="translate(2247.55 962.97)" xlink:href="#New_star"/><use width="54" height="54" transform="translate(2263.12 812.55)" xlink:href="#New_star"/><use width="54" height="54" transform="translate(2239.76 659.29)" xlink:href="#New_star"/><use width="54" height="54" transform="translate(2178.82 627.06)" xlink:href="#New_star"/><use width="54" height="54" transform="translate(2203.62 772.1)" xlink:href="#New_star"/><use width="54" height="54" transform="translate(2105.77 1009.11)" xlink:href="#New_star"/><use width="54" height="54" transform="translate(2034.4 1055.58)" xlink:href="#New_star"/><use width="54" height="54" transform="translate(2041.92 825.33)" xlink:href="#New_star"/><use width="54" height="54" transform="translate(2132.46 511.25)" xlink:href="#New_star"/><use width="54" height="54" transform="translate(2078.19 300.5)" xlink:href="#New_star"/><use width="54" height="54" transform="translate(2036.93 234.36)" xlink:href="#New_star"/><use width="54" height="54" transform="translate(2146.13 240.46)" xlink:href="#New_star"/><use width="54" height="54" transform="translate(2104.61 543.98)" xlink:href="#New_star"/><use width="54" height="54" transform="translate(1956.29 772.26)" xlink:href="#New_star"/><use width="54" height="54" transform="translate(248.32 935.04)" xlink:href="#New_star"/><use width="54" height="54" transform="translate(112.57 794.37)" xlink:href="#New_star"/><use width="54" height="54" transform="translate(30.96 579.81)" xlink:href="#New_star"/><use width="54" height="54" transform="translate(169.45 400.35)" xlink:href="#New_star"/><use width="54" height="54" transform="translate(176.75 303.15)" xlink:href="#New_star"/><use width="54" height="54" transform="translate(0 256.42)" xlink:href="#New_star"/><use width="54" height="54" transform="translate(130.72 434.96)" xlink:href="#New_star"/><use width="54" height="54" transform="translate(125.89 718.44)" xlink:href="#New_star"/><use width="54" height="54" transform="translate(155.36 969.92)" xlink:href="#New_star"/><use width="54" height="54" transform="translate(195.64 1200.74)" xlink:href="#New_star"/><use width="54" height="54" transform="translate(202.3 1309.9)" xlink:href="#New_star"/><use width="54" height="54" transform="translate(625.71 554.94)" xlink:href="#New_star"/><use width="54" height="54" transform="translate(656.71 290.1)" xlink:href="#New_star"/><use width="54" height="54" transform="translate(1064.88 150.63)" xlink:href="#New_star"/><use width="54" height="54" transform="translate(1276.31 157.15)" xlink:href="#New_star"/><use width="54" height="54" transform="translate(1219.25 31.88)" xlink:href="#New_star"/><use width="54" height="54" transform="translate(899.21)" xlink:href="#New_star"/><use width="54" height="54" transform="translate(635.24 56.81)" xlink:href="#New_star"/><use width="54" height="54" transform="translate(551.52 53.31)" xlink:href="#New_star"/><use width="54" height="54" transform="translate(889.95 49.51)" xlink:href="#New_star"/><use width="54" height="54" transform="translate(1317.24 74.67)" xlink:href="#New_star"/><use width="54" height="54" transform="translate(1571.43 84.07)" xlink:href="#New_star"/><use width="54" height="54" transform="translate(1446.94 143.3)" xlink:href="#New_star"/><use width="54" height="54" transform="translate(795.66 152.71)" xlink:href="#New_star"/><use width="54" height="54" transform="translate(505.02 109.65)" xlink:href="#New_star"/><use width="54" height="54" transform="translate(446.8 102.74)" xlink:href="#New_star"/><use width="54" height="54" transform="translate(658.77 1250.21)" xlink:href="#New_star"/><use width="54" height="54" transform="translate(716.55 1311.07)" xlink:href="#New_star"/><use width="54" height="54" transform="translate(914.48 1375.21)" xlink:href="#New_star"/><use width="54" height="54" transform="translate(1117.77 1406.49)" xlink:href="#New_star"/><use width="54" height="54" transform="translate(1333.03 1434.71)" xlink:href="#New_star"/><use width="54" height="54" transform="translate(1543.78 1423.39)" xlink:href="#New_star"/><use width="54" height="54" transform="translate(1580.72 1330.44)" xlink:href="#New_star"/><use width="54" height="54" transform="translate(1261.83 1329.48)" xlink:href="#New_star"/><use width="54" height="54" transform="translate(829.16 1337.32)" xlink:href="#New_star"/><use width="54" height="54" transform="translate(600.65 1353.62)" xlink:href="#New_star"/><use width="54" height="54" transform="translate(496.34 1254.19)" xlink:href="#New_star"/></g></g></g></svg>