<svg xmlns="http://www.w3.org/2000/svg" viewBox="0 0 87 87"><defs><style>.cls-1{fill:#ad3434;}.cls-2{fill:#882524;}.cls-3{stroke:#000;stroke-miterlimit:10;}.cls-4{fill:#774242;}.cls-5{fill:#f2f2f2;}</style></defs><title>Bad_thing_1</title><g id="Layer_2" data-name="Layer 2"><g id="Bad"><rect class="cls-1" width="87" height="87"/><path class="cls-2" d="M87,87H0c7.48-.46,35-3.07,58.5-25.5C83.9,37.23,86.57,6.92,87,0Z"/><path class="cls-3" d="M16.73,24.3A12.5,12.5,0,1,0,38.41,14.18l-21.78,7.6A12.6,12.6,0,0,0,16.73,24.3Z"/><rect class="cls-4" y="52" width="48" height="23"/><polygon class="cls-5" points="0 52 6 62 12 52 17 62 22.89 52 28 62 33.56 52 38 62 43.19 52 48 62 48 52 0 52"/><polygon class="cls-5" points="48 75 42 65 36 75 31 65 25.11 75 20 65 14.44 75 10 65 4.81 75 0 65 0 75 48 75"/></g></g></svg>