<svg xmlns="http://www.w3.org/2000/svg" viewBox="0 0 1940 121"><defs><style>.cls-1{fill:#ffffbe;}.cls-2{fill:#ffff8c;}.cls-3{fill:#ffff5a;}</style></defs><title>Begin_button_animation</title><g id="Layer_5" data-name="Layer 5"><rect class="cls-1" x="5" width="640" height="121"/><path d="M56.87,86.74A5,5,0,0,1,53.2,88H36.64A4.93,4.93,0,0,1,33,86.72a5.15,5.15,0,0,1-1.29-3.78V69.82h8.21V81.05H50V70.26L33.47,54.66a5.52,5.52,0,0,1-1.41-1.87,6.64,6.64,0,0,1-.39-2.51V38.06A5.07,5.07,0,0,1,33,34.32,5,5,0,0,1,36.64,33H53.2a5,5,0,0,1,3.67,1.31A5.07,5.07,0,0,1,58.16,38V50.38H50V40H39.88v9.92L56.36,65.46a6.35,6.35,0,0,1,1.41,1.94,6.66,6.66,0,0,1,.39,2.52V83A5.07,5.07,0,0,1,56.87,86.74Z"/><path d="M84.44,88,82.79,77.59H72.49L70.83,88H62.7v-.14L73.36,33H82L92.58,87.89V88ZM77.6,45.77l-4,24.84h8.06Z"/><path d="M114,88.1h-8.2L95.31,33.17V33h8.28l6.12,37.73.22,4.68.22-4.68L116.34,33h8.21v.15Z"/><path d="M129.23,88V33h22.6V40.3h-14.4V56.35h12.39v7.13H137.43V80.76h14.62V88Z"/><path d="M187.33,40.3V88h-8.21V40.3h-9V33H196.4V40.3Z"/><path d="M219.94,88V63.34H208.78V88h-8.2V33h8.2V55.7h11.16V33h8.28V88Z"/><path d="M234.78,88V33h22.6V40.3H243V56.35h12.39v7.13H243V80.76H257.6V88Z"/><path d="M310.59,88.1h-8.06l-4.9-31.17a12.29,12.29,0,0,1-.14-2c0-.8-.05-1.79-.15-3-.09,1.2-.14,2.19-.14,3a12.2,12.2,0,0,1-.15,2L292.16,88.1h-8.07L276,33h8.35l4.25,32.62a13.31,13.31,0,0,1,.14,2.09c0,.77.05,1.75.15,3,.09-1.2.14-2.18.14-3a13.23,13.23,0,0,1,.15-2.09L294,33h6.77l4.75,32.62a16,16,0,0,1,.14,2.12c0,.75.05,1.72.15,2.92.09-1.2.14-2.17.14-2.92a16,16,0,0,1,.14-2.12L310.3,33h8.35Z"/><path d="M349.69,86.74A5,5,0,0,1,346,88H328.16q-4.91,0-4.9-5V38.06c0-3.35,1.63-5,4.9-5H346a5,5,0,0,1,3.68,1.3A5.07,5.07,0,0,1,351,38.06V83A5.11,5.11,0,0,1,349.69,86.74ZM342.77,40h-11.3v41h11.3Z"/><path d="M377.19,88l-9.07-25.6v-5h8.06V40H365.81V88H357.6V33h21.82c3.31,0,5,1.69,5,5v20q0,4.89-4.9,5h-2.81l9.08,24.62V88Z"/><path d="M390.8,88V33H399V80.69h13.4V88Z"/><path d="M441.88,85.22A10.61,10.61,0,0,1,434.07,88H417.29V33h16.78c3.36,0,6,.95,7.85,2.85a10.33,10.33,0,0,1,2.8,7.59v34.2A10.12,10.12,0,0,1,441.88,85.22Zm-5.44-40.59a4.45,4.45,0,0,0-1.29-3.43A5,5,0,0,0,431.62,40H425.5v41h5.9a5.1,5.1,0,0,0,3.78-1.27,4.63,4.63,0,0,0,1.26-3.43Z"/><path d="M455,93.72h-5.33l1-14.11h8.42Z"/><path d="M498.51,88V63.34H487.35V88h-8.21V33h8.21V55.7h11.16V33h8.28V88Z"/><path d="M513.34,88V33H536V40.3h-14.4V56.35h12.38v7.13H521.55V80.76h14.61V88Z"/><path d="M561.36,88l-9.07-25.6v-5h8.06V40H550V88h-8.21V33h21.81c3.32,0,5,1.69,5,5v20q0,4.89-4.89,5h-2.81l9.07,24.62V88Z"/><path d="M601.39,86.74A5,5,0,0,1,597.72,88H579.87q-4.9,0-4.9-5V38.06c0-3.35,1.63-5,4.9-5h17.85a5,5,0,0,1,3.67,1.3,5,5,0,0,1,1.3,3.74V83A5.07,5.07,0,0,1,601.39,86.74ZM594.48,40h-11.3v41h11.3Z"/><path d="M617,75.22h-6.49L609.31,33h8.79ZM609.6,88V79.61h8.14V88Z"/><rect class="cls-2" x="650" width="640" height="121"/><path d="M701.87,86.74A5,5,0,0,1,698.2,88H681.64A4.93,4.93,0,0,1,678,86.72a5.15,5.15,0,0,1-1.29-3.78V69.82h8.21V81.05H695V70.26l-16.49-15.6a5.52,5.52,0,0,1-1.41-1.87,6.64,6.64,0,0,1-.39-2.51V38.06A5.07,5.07,0,0,1,678,34.32a5,5,0,0,1,3.68-1.3H698.2a5,5,0,0,1,3.67,1.31A5.07,5.07,0,0,1,703.16,38V50.38H695V40H684.88v9.92l16.48,15.53a6.35,6.35,0,0,1,1.41,1.94,6.66,6.66,0,0,1,.39,2.52V83A5.07,5.07,0,0,1,701.87,86.74Z"/><path d="M729.44,88l-1.65-10.44h-10.3L715.83,88H707.7v-.14L718.36,33H727l10.59,54.94V88ZM722.6,45.77l-4,24.84h8.06Z"/><path d="M759,88.1h-8.2L740.31,33.17V33h8.28l6.12,37.73.22,4.68.22-4.68L761.34,33h8.21v.15Z"/><path d="M774.23,88V33h22.6V40.3h-14.4V56.35h12.39v7.13H782.43V80.76h14.62V88Z"/><path d="M832.33,40.3V88h-8.21V40.3h-9V33H841.4V40.3Z"/><path d="M864.94,88V63.34H853.78V88h-8.2V33h8.2V55.7h11.16V33h8.28V88Z"/><path d="M879.78,88V33h22.6V40.3H888V56.35h12.39v7.13H888V80.76H902.6V88Z"/><path d="M955.59,88.1h-8.06l-4.9-31.17a12.29,12.29,0,0,1-.14-2c0-.8,0-1.79-.15-3-.09,1.2-.14,2.19-.14,3a12.2,12.2,0,0,1-.15,2L937.16,88.1h-8.07L921,33h8.35l4.25,32.62a13.31,13.31,0,0,1,.14,2.09c0,.77.05,1.75.15,3,.09-1.2.14-2.18.14-3a13.23,13.23,0,0,1,.15-2.09L939,33h6.77l4.75,32.62a16,16,0,0,1,.14,2.12c0,.75,0,1.72.15,2.92.09-1.2.14-2.17.14-2.92a16,16,0,0,1,.14-2.12L955.3,33h8.35Z"/><path d="M994.69,86.74A5,5,0,0,1,991,88H973.16q-4.9,0-4.9-5V38.06c0-3.35,1.63-5,4.9-5H991a5,5,0,0,1,3.68,1.3A5.07,5.07,0,0,1,996,38.06V83A5.11,5.11,0,0,1,994.69,86.74ZM987.77,40h-11.3v41h11.3Z"/><path d="M1022.19,88l-9.07-25.6v-5h8.06V40h-10.37V88h-8.21V33h21.82c3.31,0,5,1.69,5,5v20q0,4.89-4.9,5h-2.81l9.08,24.62V88Z"/><path d="M1035.8,88V33h8.2V80.69h13.4V88Z"/><path d="M1086.88,85.22a10.61,10.61,0,0,1-7.81,2.81h-16.78V33h16.78c3.36,0,6,.95,7.85,2.85a10.33,10.33,0,0,1,2.8,7.59v34.2A10.12,10.12,0,0,1,1086.88,85.22Zm-5.44-40.59a4.45,4.45,0,0,0-1.29-3.43,5,5,0,0,0-3.53-1.19h-6.12v41h5.9a5.1,5.1,0,0,0,3.78-1.27,4.63,4.63,0,0,0,1.26-3.43Z"/><path d="M1100,93.72h-5.33l1-14.11h8.42Z"/><path d="M1143.51,88V63.34h-11.16V88h-8.21V33h8.21V55.7h11.16V33h8.28V88Z"/><path d="M1158.34,88V33H1181V40.3h-14.4V56.35h12.38v7.13h-12.38V80.76h14.61V88Z"/><path d="M1206.36,88l-9.07-25.6v-5h8.06V40H1195V88h-8.21V33h21.81c3.32,0,5,1.69,5,5v20q0,4.89-4.89,5h-2.81l9.07,24.62V88Z"/><path d="M1246.39,86.74a5,5,0,0,1-3.67,1.29h-17.85q-4.9,0-4.9-5V38.06c0-3.35,1.63-5,4.9-5h17.85a5,5,0,0,1,3.67,1.3,5,5,0,0,1,1.3,3.74V83A5.07,5.07,0,0,1,1246.39,86.74ZM1239.48,40h-11.3v41h11.3Z"/><path d="M1262,75.22h-6.49L1254.31,33h8.79ZM1254.6,88V79.61h8.14V88Z"/><rect class="cls-3" x="1295" width="640" height="121"/><path d="M1346.87,86.74A5,5,0,0,1,1343.2,88h-16.56a4.93,4.93,0,0,1-3.68-1.31,5.15,5.15,0,0,1-1.29-3.78V69.82h8.21V81.05H1340V70.26l-16.49-15.6a5.52,5.52,0,0,1-1.41-1.87,6.64,6.64,0,0,1-.39-2.51V38.06a5.07,5.07,0,0,1,1.29-3.74,5,5,0,0,1,3.68-1.3h16.56a5,5,0,0,1,3.67,1.31,5.07,5.07,0,0,1,1.29,3.71V50.38H1340V40h-10.08v9.92l16.48,15.53a6.35,6.35,0,0,1,1.41,1.94,6.66,6.66,0,0,1,.39,2.52V83A5.07,5.07,0,0,1,1346.87,86.74Z"/><path d="M1374.44,88l-1.65-10.44h-10.3L1360.83,88h-8.13v-.14L1363.36,33H1372l10.59,54.94V88Zm-6.84-42.26-4,24.84h8.06Z"/><path d="M1404,88.1h-8.2l-10.52-54.93V33h8.28l6.12,37.73.22,4.68.22-4.68L1406.34,33h8.21v.15Z"/><path d="M1419.23,88V33h22.6V40.3h-14.4V56.35h12.39v7.13h-12.39V80.76h14.62V88Z"/><path d="M1477.33,40.3V88h-8.21V40.3h-9V33h26.28V40.3Z"/><path d="M1509.94,88V63.34h-11.16V88h-8.2V33h8.2V55.7h11.16V33h8.28V88Z"/><path d="M1524.78,88V33h22.6V40.3H1533V56.35h12.39v7.13H1533V80.76h14.62V88Z"/><path d="M1600.59,88.1h-8.06l-4.9-31.17a12.29,12.29,0,0,1-.14-2c0-.8,0-1.79-.15-3-.09,1.2-.14,2.19-.14,3a12.2,12.2,0,0,1-.15,2l-4.89,31.17h-8.07L1566,33h8.35l4.25,32.62a13.31,13.31,0,0,1,.14,2.09c0,.77,0,1.75.15,3,.09-1.2.14-2.18.14-3a13.23,13.23,0,0,1,.15-2.09L1584,33h6.77l4.75,32.62a16,16,0,0,1,.14,2.12c0,.75.05,1.72.15,2.92.09-1.2.14-2.17.14-2.92a16,16,0,0,1,.14-2.12L1600.3,33h8.35Z"/><path d="M1639.69,86.74A5,5,0,0,1,1636,88h-17.85q-4.9,0-4.9-5V38.06c0-3.35,1.63-5,4.9-5H1636a5,5,0,0,1,3.68,1.3,5.07,5.07,0,0,1,1.29,3.74V83A5.11,5.11,0,0,1,1639.69,86.74ZM1632.77,40h-11.3v41h11.3Z"/><path d="M1667.19,88l-9.07-25.6v-5h8.06V40h-10.37V88h-8.21V33h21.82c3.31,0,5,1.69,5,5v20q0,4.89-4.9,5h-2.81l9.08,24.62V88Z"/><path d="M1680.8,88V33h8.2V80.69h13.4V88Z"/><path d="M1731.88,85.22a10.61,10.61,0,0,1-7.81,2.81h-16.78V33h16.78c3.36,0,6,.95,7.85,2.85a10.33,10.33,0,0,1,2.8,7.59v34.2A10.12,10.12,0,0,1,1731.88,85.22Zm-5.44-40.59a4.45,4.45,0,0,0-1.29-3.43,5,5,0,0,0-3.53-1.19h-6.12v41h5.9a5.1,5.1,0,0,0,3.78-1.27,4.63,4.63,0,0,0,1.26-3.43Z"/><path d="M1745,93.72h-5.33l1-14.11h8.42Z"/><path d="M1788.51,88V63.34h-11.16V88h-8.21V33h8.21V55.7h11.16V33h8.28V88Z"/><path d="M1803.34,88V33H1826V40.3h-14.4V56.35h12.38v7.13h-12.38V80.76h14.61V88Z"/><path d="M1851.36,88l-9.07-25.6v-5h8.06V40H1840V88h-8.21V33h21.81c3.32,0,5,1.69,5,5v20q0,4.89-4.89,5h-2.81l9.07,24.62V88Z"/><path d="M1891.39,86.74a5,5,0,0,1-3.67,1.29h-17.85q-4.9,0-4.9-5V38.06c0-3.35,1.63-5,4.9-5h17.85a5,5,0,0,1,3.67,1.3,5,5,0,0,1,1.3,3.74V83A5.07,5.07,0,0,1,1891.39,86.74ZM1884.48,40h-11.3v41h11.3Z"/><path d="M1907,75.22h-6.49L1899.31,33h8.79ZM1899.6,88V79.61h8.14V88Z"/></g></svg>