<svg xmlns="http://www.w3.org/2000/svg" xmlns:xlink="http://www.w3.org/1999/xlink" viewBox="0 0 491 185"><defs><style>.cls-1{fill:url(#linear-gradient);}.cls-2{fill:url(#linear-gradient-2);}.cls-3{fill:url(#linear-gradient-3);}</style><linearGradient id="linear-gradient" x1="253" y1="171.53" x2="253" y2="-0.25" gradientUnits="userSpaceOnUse"><stop offset="0" stop-color="#c7d4c9"/><stop offset="0.48" stop-color="#c8d5cb"/><stop offset="0.67" stop-color="#cad9d2"/><stop offset="0.82" stop-color="#cee0de"/><stop offset="0.94" stop-color="#d4eaf0"/><stop offset="1" stop-color="#d9f1fd"/></linearGradient><linearGradient id="linear-gradient-2" x1="353.5" y1="177.63" x2="353.5" y2="40.8" xlink:href="#linear-gradient"/><linearGradient id="linear-gradient-3" x1="137.5" y1="184.63" x2="137.5" y2="47.8" xlink:href="#linear-gradient"/></defs><title>cloud</title><g id="Layer_2" data-name="Layer 2"><g id="BG"><path class="cls-1" d="M415.64,42.38C395,17.51,345.87,0,288.5,0c-43.27,0-81.86,10-107.07,25.52A274.37,274.37,0,0,0,152.5,24C76.56,24,15,54.67,15,92.5S76.56,161,152.5,161c34.57,0,66.16-6.36,90.32-16.85C267.86,161,308.11,172,353.5,172c75.94,0,137.5-30.67,137.5-68.5C491,76.81,460.36,53.69,415.64,42.38Z"/><ellipse class="cls-2" cx="353.5" cy="109.5" rx="137.5" ry="68.5"/><ellipse class="cls-3" cx="137.5" cy="116.5" rx="137.5" ry="68.5"/></g></g></svg>