<svg xmlns="http://www.w3.org/2000/svg" xmlns:xlink="http://www.w3.org/1999/xlink" viewBox="0 0 892 502"><defs><style>.cls-1{isolation:isolate;}.cls-2{fill:url(#linear-gradient);}.cls-3{mix-blend-mode:multiply;}.cls-4{fill:#fff;}</style><linearGradient id="linear-gradient" x1="643.45" y1="494.11" x2="327.37" y2="104.94" gradientUnits="userSpaceOnUse"><stop offset="0" stop-color="#d9814e"/><stop offset="0.33" stop-color="#c57149"/><stop offset="1" stop-color="#93483b"/></linearGradient></defs><title>Gameover_screen</title><g class="cls-1"><g id="Layer_2" data-name="Layer 2"><g id="BG"><rect class="cls-2" width="892" height="502"/><g class="cls-3"><path d="M97.05,260.26H46.17q-14.41,0-14.42-18.46V77.25q0-18.45,14.63-18.45H97.05q14.83,0,14.84,18.27V120H87.51V84.37H55.92V234.68H87.51V178h-18V152.41h42.4V241.8Q111.89,260.27,97.05,260.26Z"/><path d="M189.27,260.26,184.4,222H154.08l-4.88,38.23H125.25v-.53l31.37-201.2h25.44l31.17,201.2v.53ZM169.13,105.47l-11.87,91H181Z"/><path d="M301.42,260.26V160.85q0-2.9.11-6.6c.07-2.46.24-4.83.53-7.12.28-2.63.56-5.36.85-8.17l-21,102.84h-12.3L248.63,139c.14,2.81.35,5.54.64,8.17q.42,3.44.63,7.12c.14,2.47.22,4.67.22,6.6v99.41H226.79V58.8h22.9l25.44,111.28a9.14,9.14,0,0,1,.21,2.24,21.41,21.41,0,0,0,.22,3q0,1.85.21,4a35.09,35.09,0,0,1,.21-4,27.64,27.64,0,0,1,.42-5.27L301.85,58.8h22.89V260.26Z"/><path d="M344,260.26V58.8H410.6V85.43H368.2v58.8h36.47v26.11H368.2v63.29h43v26.63Z"/><path d="M549.25,255.51q-3.81,4.75-10.81,4.75H485.86q-14.42,0-14.41-18.46V77.25q0-18.45,14.41-18.45h52.58q7,0,10.81,4.74t3.82,13.71V241.8Q553.07,250.77,549.25,255.51ZM528.9,84.37H495.61V234.68H528.9Z"/><path d="M622.18,260.53H598l-31-201.21V58.8h24.38l18,138.17.63,17.14.64-17.14L629,58.8h24.17v.52Z"/><path d="M666.91,260.26V58.8h66.57V85.43h-42.4v58.8h36.46v26.11H691.08v63.29h43v26.63Z"/><path d="M808.32,260.26,781.6,166.51V148.28h23.75V84.37H774.82V260.26H750.65V58.8h64.24q14.63,0,14.63,18.45v73.31q0,17.94-14.42,18.46h-8.27l26.72,90.19v1.05Z"/><path d="M870.86,213.32H851.78L848.39,58.8h25.86Zm-21.63,46.94V229.41h24v30.85Z"/></g><path class="cls-4" d="M92.05,265.26H41.17q-14.42,0-14.42-18.46V82.25q0-18.45,14.63-18.45H92.05q14.83,0,14.84,18.27V125H82.51V89.37H50.92V239.68H82.51V183h-18V157.41h42.4V246.8Q106.89,265.27,92.05,265.26Z"/><path class="cls-4" d="M184.27,265.26,179.4,227H149.08l-4.88,38.23H120.25v-.53l31.37-201.2h25.44l31.17,201.2v.53ZM164.13,110.47l-11.87,91H176Z"/><path class="cls-4" d="M296.42,265.26V165.85q0-2.9.11-6.6c.07-2.46.24-4.83.53-7.12.28-2.63.56-5.36.85-8.17l-21,102.84h-12.3L243.63,144c.14,2.81.35,5.54.64,8.17q.42,3.44.63,7.12c.14,2.47.22,4.67.22,6.6v99.41H221.79V63.8h22.9l25.44,111.28a9.14,9.14,0,0,1,.21,2.24,21.41,21.41,0,0,0,.22,3q0,1.85.21,4a35.09,35.09,0,0,1,.21-4,27.64,27.64,0,0,1,.42-5.27L296.85,63.8h22.89V265.26Z"/><path class="cls-4" d="M339,265.26V63.8H405.6V90.43H363.2v58.8h36.47v26.11H363.2v63.29h43v26.63Z"/><path class="cls-4" d="M544.25,260.51q-3.81,4.75-10.81,4.75H480.86q-14.42,0-14.41-18.46V82.25q0-18.45,14.41-18.45h52.58q7,0,10.81,4.74t3.82,13.71V246.8Q548.07,255.77,544.25,260.51ZM523.9,89.37H490.61V239.68H523.9Z"/><path class="cls-4" d="M617.18,265.53H593l-31-201.21V63.8h24.38l18,138.17.63,17.14.64-17.14L624,63.8h24.17v.52Z"/><path class="cls-4" d="M661.91,265.26V63.8h66.57V90.43h-42.4v58.8h36.46v26.11H686.08v63.29h43v26.63Z"/><path class="cls-4" d="M803.32,265.26,776.6,171.51V153.28h23.75V89.37H769.82V265.26H745.65V63.8h64.24q14.63,0,14.63,18.45v73.31q0,17.94-14.42,18.46h-8.27l26.72,90.19v1.05Z"/><path class="cls-4" d="M865.86,218.32H846.78L843.39,63.8h25.86Zm-21.63,46.94V234.41h24v30.85Z"/></g></g></g></svg>