<svg xmlns="http://www.w3.org/2000/svg" viewBox="0 0 87.55 87.53"><defs><style>.cls-1{fill:#efd40c;}.cls-2{fill:#c2ae12;}.cls-3{fill:#645c01;}</style></defs><title>Good_thing_1</title><g id="Layer_2" data-name="Layer 2"><g id="Rando_box"><rect class="cls-1" width="87" height="87"/><path class="cls-2" d="M87.5,87.5H.5c5.09.17,39.5.73,65-27C88.13,35.89,87.71,6.43,87.5.5Z"/><path class="cls-3" d="M60.66,30.82a8.24,8.24,0,0,1-1.41,2.27L49.18,45V56.46h-9.9V46.12a8.76,8.76,0,0,1,.41-2.94,7.84,7.84,0,0,1,1.39-2.3L51,29V17.43H39.37V28.48H29.29v-13q0-5.56,6.3-5.56H54.76a6.92,6.92,0,0,1,4.64,1.43,5.14,5.14,0,0,1,1.66,4.13V28A8.11,8.11,0,0,1,60.66,30.82ZM39.1,70.6V61.3H49.36v9.3Z"/></g></g></svg>