<svg xmlns="http://www.w3.org/2000/svg" viewBox="0 0 113.24 113.77"><defs><style>.cls-1{fill:#daa685;}.cls-2,.cls-4{fill:#2a100b;}.cls-3{fill:#fff;}.cls-3,.cls-4,.cls-5,.cls-7{stroke:#000;stroke-miterlimit:10;}.cls-5{fill:#3a0f00;}.cls-6{fill:#aa8369;}</style></defs><title>Head_1</title><g id="Layer_2" data-name="Layer 2"><g id="Player"><circle class="cls-1" cx="56.62" cy="57.12" r="56.62"/><path class="cls-2" d="M56.82,31.92l50.8.08a56.62,56.62,0,1,0-68.7,78.4Z"/><circle class="cls-3" cx="86.77" cy="60.33" r="9.03"/><path class="cls-4" d="M73.12,44.88c.08.39,7.89-3.28,16.06,0C97,48,100.09,55.4,100.82,54.92s-1.25-8.07-7.22-11.65C84.94,38.09,73,44.38,73.12,44.88Z"/><path class="cls-5" d="M83.12,68.71c-1.9-2,.06-7,2.24-9.79,1.76-2.26,5.54-5.56,8-4.41s3.27,7.11.8,10.84C91.51,69.41,85.16,70.84,83.12,68.71Z"/><path class="cls-6" d="M57.62,113.74a62.67,62.67,0,0,0,15.88-2.32,57.9,57.9,0,0,0,12-5c3.7-2.08,8.42-6.48,10.07-8.07,1.14-1.1,4.31-5.2,3.94-5.79-1.1-1.77-17,8.27-38,13.86-13.09,3.48-22,3.6-22,5S49.78,114,57.62,113.74Z"/><path class="cls-7" d="M68.06,96.48c.2.22,6.17-8.2,14.46-8,8,.16,13.45,8.25,13.65,8S91.08,87,82.52,86.84C73.66,86.64,67.86,96.25,68.06,96.48Z"/></g></g></svg>