<svg xmlns="http://www.w3.org/2000/svg" viewBox="0 0 113.24 316.42"><defs><style>.cls-1,.cls-7{fill:#daa685;}.cls-2{fill:#2a100b;}.cls-2,.cls-3,.cls-4,.cls-5,.cls-6,.cls-7{stroke:#000;stroke-miterlimit:10;}.cls-3{fill:#fff;}.cls-5{fill:#3a0f00;}.cls-6{fill:#7f5217;}</style></defs><title>Player_2</title><g id="Layer_2" data-name="Layer 2"><g id="Player"><circle class="cls-1" cx="56.62" cy="57.12" r="56.12"/><path d="M56.62,1.5A55.62,55.62,0,1,1,1,57.12,55.68,55.68,0,0,1,56.62,1.5m0-1a56.62,56.62,0,1,0,56.62,56.62A56.62,56.62,0,0,0,56.62.5Z"/><path class="cls-2" d="M57.82,32.42l50.8.08a56.62,56.62,0,1,0-68.7,78.4Z"/><circle class="cls-3" cx="95.77" cy="58.32" r="9.03"/><path class="cls-4" d="M66.06,97.47c.2.23,6.17-8.2,14.46-8,8,.17,13.45,8.25,13.65,8S89.08,88,80.52,87.84C71.66,87.63,65.86,97.25,66.06,97.47Z"/><path class="cls-2" d="M83.12,44.87c.08.4,7.89-3.27,16.06,0,7.78,3.12,10.91,10.53,11.64,10s-1.25-8.06-7.22-11.64C94.94,38.08,83,44.38,83.12,44.87Z"/><path class="cls-5" d="M92.12,66.7c-1.9-2,.06-7,2.24-9.78,1.76-2.27,5.54-5.57,8-4.42s3.27,7.11.8,10.84C100.51,67.4,94.16,68.83,92.12,66.7Z"/><rect class="cls-6" x="15.66" y="113.54" width="82.32" height="113.24" transform="translate(113.63 340.31) rotate(-180)"/><rect class="cls-6" x="38.95" y="226.77" width="35.34" height="89.14" transform="translate(113.23 542.69) rotate(-180)"/><ellipse class="cls-7" cx="54.62" cy="168.56" rx="10.64" ry="49.79"/></g></g></svg>