<svg xmlns="http://www.w3.org/2000/svg" xmlns:xlink="http://www.w3.org/1999/xlink" viewBox="0 0 685 350"><defs><style>.cls-1{stroke:#000;stroke-miterlimit:10;fill:url(#linear-gradient);}.cls-2{fill:#fff;}</style><linearGradient id="linear-gradient" x1="342.5" y1="362.49" x2="342.5" y2="0.91" gradientUnits="userSpaceOnUse"><stop offset="0" stop-color="#745a5c"/><stop offset="0.08" stop-color="#7b5654"/><stop offset="0.3" stop-color="#894e46"/><stop offset="0.56" stop-color="#91493e"/><stop offset="1" stop-color="#93483b"/></linearGradient></defs><title>Settings_BG</title><g id="Layer_2" data-name="Layer 2"><g id="Layer_1-2" data-name="Layer 1"><rect class="cls-1" x="0.5" y="0.5" width="684" height="349"/><path d="M259,63a5,5,0,0,1-3.67,1.3H238.75A5,5,0,0,1,235.07,63a5.2,5.2,0,0,1-1.29-3.79V46.05H242V57.28h10.08V46.5L235.58,30.9A5.86,5.86,0,0,1,234.17,29a6.66,6.66,0,0,1-.39-2.52V14.29a5.09,5.09,0,0,1,1.29-3.74,5,5,0,0,1,3.68-1.29h16.56A4.92,4.92,0,0,1,259,10.57a5.06,5.06,0,0,1,1.29,3.71V26.61h-8.2V16.24H242v9.92l16.48,15.53a6.35,6.35,0,0,1,1.41,1.94,6.69,6.69,0,0,1,.39,2.52V59.23A5.07,5.07,0,0,1,259,63Z"/><path d="M266.83,64.27v-55h22.6v7.27H275V32.59h12.39v7.12H275V57h14.62v7.28Z"/><path d="M310.1,16.53V64.27h-8.21V16.53h-9V9.26h26.28v7.27Z"/><path d="M338.18,16.53V64.27H330V16.53h-9V9.26h26.28v7.27Z"/><path d="M351.57,64.27v-55h8.21v55Z"/><path d="M387.23,64.27,374.1,29.63a14.32,14.32,0,0,0,.22,1.44,9.16,9.16,0,0,1,.22,1.26c0,.46.07.88.07,1.26V64.27h-8.07v-55h7.18l13.13,33.91c-.1-.48-.19-1-.29-1.44a6,6,0,0,1-.18-1.26c0-.46,0-.88,0-1.26V9.26h8.07v55Z"/><path d="M423.21,64.27H405.93q-4.9,0-4.9-5V14.3q0-5,5-5h17.21q5,0,5,5V26H420V16.24H409.24v41H420V41.8h-6.12v-7h14.4V59.23Q428.25,64.27,423.21,64.27Z"/><path d="M459.85,63a5,5,0,0,1-3.67,1.3H439.62A4.94,4.94,0,0,1,436,63a5.2,5.2,0,0,1-1.3-3.79V46.05h8.21V57.28h10.08V46.5L436.45,30.9a5.67,5.67,0,0,1-1.4-1.87,6.64,6.64,0,0,1-.4-2.52V14.29a5.09,5.09,0,0,1,1.3-3.74,5,5,0,0,1,3.67-1.29h16.56a4.89,4.89,0,0,1,3.67,1.31,5,5,0,0,1,1.3,3.71V26.61h-8.21V16.24H442.86v9.92l16.49,15.53a6.3,6.3,0,0,1,1.4,1.94,6.48,6.48,0,0,1,.4,2.52V59.23A5,5,0,0,1,459.85,63Z"/><path class="cls-2" d="M254,68a5,5,0,0,1-3.67,1.3H233.75A5,5,0,0,1,230.07,68a5.2,5.2,0,0,1-1.29-3.79V51.05H237V62.28h10.08V51.5L230.58,35.9A5.86,5.86,0,0,1,229.17,34a6.66,6.66,0,0,1-.39-2.52V19.29a5.09,5.09,0,0,1,1.29-3.74,5,5,0,0,1,3.68-1.29h16.56A4.92,4.92,0,0,1,254,15.57a5.06,5.06,0,0,1,1.29,3.71V31.61h-8.2V21.24H237v9.92l16.48,15.53a6.35,6.35,0,0,1,1.41,1.94,6.69,6.69,0,0,1,.39,2.52V64.23A5.07,5.07,0,0,1,254,68Z"/><path class="cls-2" d="M261.83,69.27v-55h22.6v7.27H270V37.59h12.39v7.12H270V62h14.62v7.28Z"/><path class="cls-2" d="M305.1,21.53V69.27h-8.21V21.53h-9V14.26h26.28v7.27Z"/><path class="cls-2" d="M333.18,21.53V69.27H325V21.53h-9V14.26h26.28v7.27Z"/><path class="cls-2" d="M346.57,69.27v-55h8.21v55Z"/><path class="cls-2" d="M382.23,69.27,369.1,34.63a14.32,14.32,0,0,0,.22,1.44,9.16,9.16,0,0,1,.22,1.26c0,.46.07.88.07,1.26V69.27h-8.07v-55h7.18l13.13,33.91c-.1-.48-.19-1-.29-1.44a6,6,0,0,1-.18-1.26c0-.46,0-.88,0-1.26V14.26h8.07v55Z"/><path class="cls-2" d="M418.21,69.27H400.93q-4.9,0-4.9-5V19.3q0-5,5-5h17.21q5,0,5,5V31H415V21.24H404.24v41H415V46.8h-6.12v-7h14.4V64.23Q423.25,69.27,418.21,69.27Z"/><path class="cls-2" d="M454.85,68a5,5,0,0,1-3.67,1.3H434.62A4.94,4.94,0,0,1,431,68a5.2,5.2,0,0,1-1.3-3.79V51.05h8.21V62.28h10.08V51.5L431.45,35.9a5.67,5.67,0,0,1-1.4-1.87,6.64,6.64,0,0,1-.4-2.52V19.29a5.09,5.09,0,0,1,1.3-3.74,5,5,0,0,1,3.67-1.29h16.56a4.89,4.89,0,0,1,3.67,1.31,5,5,0,0,1,1.3,3.71V31.61h-8.21V21.24H437.86v9.92l16.49,15.53a6.3,6.3,0,0,1,1.4,1.94,6.48,6.48,0,0,1,.4,2.52V64.23A5,5,0,0,1,454.85,68Z"/><path d="M295.85,156.91h-5.47l-7-36.63v-.09h5.52L293,145.34l.15,3.12.14-3.12,4.13-25.15h5.47v.09Z"/><path d="M323.6,156a3.35,3.35,0,0,1-2.45.86h-11.9q-3.27,0-3.27-3.36V123.55q0-3.36,3.27-3.36h11.9a3.35,3.35,0,0,1,2.45.86,3.42,3.42,0,0,1,.86,2.5v30A3.42,3.42,0,0,1,323.6,156ZM319,124.84h-7.54v27.37H319Z"/><path d="M328.88,156.86V120.19h5.47V152h8.93v4.9Z"/><path d="M361.52,156.86H349.85q-3.32,0-3.31-3.36V120.19H352v32h7.39v-32h5.48V153.5Q364.88,156.86,361.52,156.86Z"/><path d="M386.19,156.86v-18.1c0-.35,0-.75,0-1.2s.06-.87.12-1.29.13-1,.19-1.49l-4.75,18.72H379l-4.75-18.72c0,.51.07,1,.14,1.49s.11.85.14,1.29.05.85.05,1.2v18.1h-5.28V120.19h5.19l5.76,20.25a1.53,1.53,0,0,1,0,.41,3.51,3.51,0,0,0,.05.55,6.4,6.4,0,0,0,.05.73,4.26,4.26,0,0,1,.05-.73,4.35,4.35,0,0,1,.09-1l5.76-20.25h5.19v36.67Z"/><path d="M395.84,156.86V120.19h15.07V125h-9.6v10.7h8.25v4.75h-8.25V152h9.74v4.85Z"/><path class="cls-2" d="M290.85,161.91h-5.47l-7-36.63v-.09h5.52L288,150.34l.15,3.12.14-3.12,4.13-25.15h5.47v.09Z"/><path class="cls-2" d="M318.6,161a3.35,3.35,0,0,1-2.45.86h-11.9q-3.27,0-3.27-3.36V128.55q0-3.36,3.27-3.36h11.9a3.35,3.35,0,0,1,2.45.86,3.42,3.42,0,0,1,.86,2.5V158.5A3.42,3.42,0,0,1,318.6,161ZM314,129.84h-7.54v27.37H314Z"/><path class="cls-2" d="M323.88,161.86V125.19h5.47V157h8.93v4.9Z"/><path class="cls-2" d="M356.52,161.86H344.85q-3.32,0-3.31-3.36V125.19H347v32h7.39v-32h5.48V158.5Q359.88,161.86,356.52,161.86Z"/><path class="cls-2" d="M381.19,161.86v-18.1c0-.35,0-.75,0-1.2s.06-.87.12-1.29.13-1,.19-1.49l-4.75,18.72H374l-4.75-18.72c0,.51.07,1,.14,1.49s.11.85.14,1.29.05.85.05,1.2v18.1h-5.28V125.19h5.19l5.76,20.25a1.53,1.53,0,0,1,0,.41,3.51,3.51,0,0,0,.05.55,6.4,6.4,0,0,0,.05.73,4.26,4.26,0,0,1,.05-.73,4.35,4.35,0,0,1,.09-1l5.76-20.25h5.19v36.67Z"/><path class="cls-2" d="M390.84,161.86V125.19h15.07V130h-9.6v10.7h8.25v4.75h-8.25V157h9.74v4.85Z"/></g></g></svg>